<svg xmlns="http://www.w3.org/2000/svg" xmlns:xlink="http://www.w3.org/1999/xlink" width="1080" height="1080" preserveAspectRatio="xMidYMid meet" version="1.0" viewBox="0 0 810 810" zoomAndPan="magnify"><defs><clipPath id="9a03e6235f"><path d="M 179.78125 281.105469 L 630.210938 281.105469 L 630.210938 639.984375 L 179.78125 639.984375 Z M 179.78125 281.105469" clip-rule="nonzero"/></clipPath><clipPath id="68c62f4d79"><path d="M 179.78125 189.472656 L 630.210938 189.472656 L 630.210938 281.21875 L 179.78125 281.21875 Z M 179.78125 189.472656" clip-rule="nonzero"/></clipPath><clipPath id="2cc5c165d4"><path d="M 292 143.484375 L 336 143.484375 L 336 238 L 292 238 Z M 292 143.484375" clip-rule="nonzero"/></clipPath><clipPath id="dbfc045fa9"><path d="M 314 143.484375 L 336 143.484375 L 336 238 L 314 238 Z M 314 143.484375" clip-rule="nonzero"/></clipPath><clipPath id="9841fdce5f"><path d="M 471 143.484375 L 515 143.484375 L 515 238 L 471 238 Z M 471 143.484375" clip-rule="nonzero"/></clipPath><clipPath id="0c8a1c255a"><path d="M 492 143.484375 L 515 143.484375 L 515 238 L 492 238 Z M 492 143.484375" clip-rule="nonzero"/></clipPath><clipPath id="3283ffd739"><path d="M 379 356.894531 L 431 356.894531 L 431 507.644531 L 379 507.644531 Z M 379 356.894531" clip-rule="nonzero"/></clipPath></defs><rect width="972" height="972" x="-81" y="-81" fill="#fff" fill-opacity="1"/><rect width="972" height="972" x="-81" y="-81" fill="#6688ba" fill-opacity="1"/><g clip-path="url(#9a03e6235f)"><path fill="#e7e8e7" fill-opacity="1" fill-rule="nonzero" d="M 205.730469 640.019531 L 604.261719 640.019531 C 618.59375 640.019531 630.214844 628.402344 630.214844 614.070312 L 630.214844 281.113281 L 179.78125 281.113281 L 179.78125 614.070312 C 179.78125 628.402344 191.398438 640.019531 205.730469 640.019531"/></g><g clip-path="url(#68c62f4d79)"><path fill="#283143" fill-opacity="1" fill-rule="nonzero" d="M 179.78125 215.539062 L 179.78125 281.113281 L 630.214844 281.113281 L 630.214844 215.539062 C 630.214844 201.207031 618.59375 189.585938 604.261719 189.585938 L 205.730469 189.585938 C 191.398438 189.585938 179.78125 201.207031 179.78125 215.539062"/></g><g clip-path="url(#2cc5c165d4)"><path fill="#8297b2" fill-opacity="1" fill-rule="nonzero" d="M 314.125 237.34375 C 302.179688 237.34375 292.5 227.660156 292.5 215.71875 L 292.5 165.109375 C 292.5 153.164062 302.179688 143.484375 314.125 143.484375 C 326.070312 143.484375 335.753906 153.164062 335.753906 165.109375 L 335.753906 215.71875 C 335.753906 227.660156 326.070312 237.34375 314.125 237.34375"/></g><g clip-path="url(#dbfc045fa9)"><path fill="#7d7c7a" fill-opacity="1" fill-rule="nonzero" d="M 314.125 143.484375 C 326.070312 143.484375 335.753906 153.164062 335.753906 165.109375 L 335.753906 215.71875 C 335.753906 227.660156 326.070312 237.34375 314.125 237.34375 L 314.125 143.484375"/></g><g clip-path="url(#9841fdce5f)"><path fill="#8297b2" fill-opacity="1" fill-rule="nonzero" d="M 492.667969 237.34375 C 480.726562 237.34375 471.042969 227.664062 471.042969 215.71875 L 471.042969 165.113281 C 471.042969 153.167969 480.726562 143.488281 492.667969 143.488281 C 504.613281 143.488281 514.296875 153.167969 514.296875 165.113281 L 514.296875 215.71875 C 514.296875 227.664062 504.613281 237.34375 492.667969 237.34375"/></g><g clip-path="url(#0c8a1c255a)"><path fill="#7d7c7a" fill-opacity="1" fill-rule="nonzero" d="M 492.667969 143.488281 C 504.613281 143.488281 514.296875 153.167969 514.296875 165.113281 L 514.296875 215.71875 C 514.296875 227.664062 504.613281 237.34375 492.667969 237.34375 L 492.667969 143.488281"/></g><g clip-path="url(#3283ffd739)"><path fill="#283143" fill-opacity="1" fill-rule="nonzero" d="M 409.183594 472.382812 L 409.183594 392.125 L 429.398438 371.90625 C 429.398438 371.90625 432.359375 368.949219 429.398438 365.984375 C 426.4375 363.023438 423.476562 365.984375 423.476562 365.984375 L 409.183594 380.28125 L 409.183594 361.082031 C 409.183594 361.082031 409.183594 356.894531 405 356.894531 C 400.8125 356.894531 400.8125 361.082031 400.8125 361.082031 L 400.8125 380.28125 L 386.519531 365.984375 C 386.519531 365.984375 383.558594 363.023438 380.601562 365.984375 C 377.640625 368.949219 380.601562 371.90625 380.601562 371.90625 L 400.8125 392.125 L 400.8125 472.382812 L 380.601562 492.597656 C 380.601562 492.597656 377.640625 495.558594 380.601562 498.515625 C 383.558594 501.476562 386.519531 498.515625 386.519531 498.515625 L 400.8125 484.222656 L 400.8125 503.421875 C 400.8125 503.421875 400.8125 507.609375 405 507.609375 C 409.183594 507.609375 409.183594 503.421875 409.183594 503.421875 L 409.183594 484.222656 L 423.476562 498.515625 C 423.476562 498.515625 426.4375 501.476562 429.398438 498.515625 C 432.359375 495.558594 429.398438 492.597656 429.398438 492.597656 Z M 409.183594 472.382812"/></g><path fill="#283143" fill-opacity="1" fill-rule="nonzero" d="M 474.585938 444.25 C 473.503906 440.207031 469.457031 441.292969 469.457031 441.292969 L 441.847656 448.6875 L 372.339844 408.558594 L 364.941406 380.945312 C 364.941406 380.945312 363.859375 376.902344 359.8125 377.988281 C 355.765625 379.070312 356.855469 383.117188 356.855469 383.117188 L 362.085938 402.640625 L 345.457031 393.039062 C 345.457031 393.039062 341.832031 390.945312 339.738281 394.570312 C 337.644531 398.195312 341.269531 400.289062 341.269531 400.289062 L 357.894531 409.886719 L 338.371094 415.117188 C 338.371094 415.117188 334.320312 416.203125 335.410156 420.246094 C 336.496094 424.292969 340.539062 423.210938 340.539062 423.210938 L 368.152344 415.8125 L 437.660156 455.945312 L 445.058594 483.558594 C 445.058594 483.558594 446.144531 487.601562 450.1875 486.519531 C 454.230469 485.429688 453.148438 481.390625 453.148438 481.390625 L 447.914062 461.863281 L 464.542969 471.464844 C 464.542969 471.464844 468.171875 473.558594 470.265625 469.933594 C 472.359375 466.304688 468.730469 464.210938 468.730469 464.210938 L 452.105469 454.613281 L 471.628906 449.382812 C 471.628906 449.378906 475.671875 448.296875 474.585938 444.25 Z M 474.585938 444.25"/><path fill="#283143" fill-opacity="1" fill-rule="nonzero" d="M 471.628906 415.117188 L 452.101562 409.882812 L 468.730469 400.285156 C 468.730469 400.285156 472.359375 398.1875 470.265625 394.5625 C 468.167969 390.929688 464.542969 393.027344 464.542969 393.027344 L 447.917969 402.625 L 453.148438 383.101562 C 453.148438 383.101562 454.230469 379.058594 450.1875 377.972656 C 446.144531 376.890625 445.058594 380.933594 445.058594 380.933594 L 437.660156 408.542969 L 368.148438 448.6875 L 340.542969 441.285156 C 340.542969 441.285156 336.5 440.203125 335.414062 444.246094 C 334.324219 448.296875 338.375 449.375 338.375 449.375 L 357.894531 454.605469 L 341.269531 464.203125 C 341.269531 464.203125 337.648438 466.300781 339.742188 469.925781 C 341.835938 473.546875 345.457031 471.457031 345.457031 471.457031 L 362.085938 461.855469 L 356.855469 481.378906 C 356.855469 481.378906 355.769531 485.425781 359.8125 486.503906 C 363.863281 487.59375 364.945312 483.550781 364.945312 483.550781 L 372.347656 455.929688 L 441.859375 415.804688 L 469.472656 423.207031 C 469.472656 423.207031 473.515625 424.289062 474.601562 420.246094 C 475.667969 416.195312 471.628906 415.117188 471.628906 415.117188 Z M 471.628906 415.117188"/></svg>